<?xml version="1.0" standalone="no"?>
<!DOCTYPE svg PUBLIC "-//W3C//DTD SVG 20010904//EN"
 "http://www.w3.org/TR/2001/REC-SVG-20010904/DTD/svg10.dtd">
<svg version="1.0" xmlns="http://www.w3.org/2000/svg"
 width="100%" height="100%" viewBox="0 0 100% 100%"
 preserveAspectRatio="xMidYMid meet">
<metadata>
Created by potrace 1.13, written by Peter Selinger 2001-2015
</metadata>
<g transform="translate(180.000000,760.000000) scale(0.090000,-0.090000)"
fill="#000000" stroke="none">
<path d="M4169 6933 c-34 -38 -257 -268 -494 -513 -2103 -2171 -3374 -3565
-3483 -3819 -36 -83 -63 -198 -69 -297 -5 -76 -2 -103 16 -162 37 -124 149
-219 302 -258 109 -28 241 0 405 85 123 65 171 97 396 272 863 668 1702 1181
2257 1379 508 181 832 103 1297 -311 169 -150 313 -308 775 -853 236 -279 440
-491 575 -600 430 -344 757 -339 880 13 47 132 54 98 -134 597 -868 2293
-1572 4038 -1796 4449 l-44 80 -410 3 -410 2 -63 -67z"/>
<path d="M6174 5901 c-98 -24 -200 -115 -256 -230 -74 -149 -39 -389 100 -682
46 -98 270 -688 748 -1972 112 -302 233 -619 268 -705 133 -327 156 -443 121
-607 -54 -252 -274 -489 -686 -737 -145 -88 -267 -153 -724 -382 -253 -128
-509 -261 -570 -296 -126 -72 -321 -203 -380 -254 l-40 -35 2332 -1 2333 0
152 36 c308 72 468 119 562 167 84 41 167 124 202 200 26 56 29 72 29 167 0
190 -42 276 -337 695 -1755 2491 -2903 4041 -3273 4421 -70 72 -94 89 -185
133 -159 77 -296 105 -396 82z"/>
</g>
</svg>
